<svg xmlns="http://www.w3.org/2000/svg" viewBox="0 0 474.3 60.1"><defs><style>.cls-1{fill:#fff;}.cls-2,.cls-3{fill:none;}.cls-2{stroke:#fff;stroke-linecap:round;stroke-linejoin:round;stroke-width:5px;}</style></defs><g id="Layer_2" data-name="Layer 2"><g id="Layer_1-2" data-name="Layer 1"><path class="cls-1" d="M81,61.2,79.2,48.6H59.4l-7,12.6H42.5L72.1,10.8h9.8l8,50.4ZM75.6,20.8V18.4h-.2a21.7,21.7,0,0,1-1.6,3.8L63.1,41.5H78.2l-2.4-19A7.2,7.2,0,0,1,75.6,20.8Z" transform="translate(0 -4.8)"/><path class="cls-1" d="M125.2,33.7a13,13,0,0,0-3.3-1.9,12.3,12.3,0,0,0-4.4-.8,10.4,10.4,0,0,0-6.1,2,14.7,14.7,0,0,0-4.5,5.7,17.8,17.8,0,0,0-1.8,7.8c0,2.9.7,5.1,2,6.6a6.9,6.9,0,0,0,5.6,2.3,13.4,13.4,0,0,0,4.6-.9,20.1,20.1,0,0,0,4.4-2.2l-1.5,7.2a21.8,21.8,0,0,1-9.9,2.6c-4.3,0-7.6-1.3-10.1-3.9s-3.6-6.3-3.6-10.9a25.4,25.4,0,0,1,2.7-11.6,20.6,20.6,0,0,1,7.6-8.4,20.1,20.1,0,0,1,10.9-3,22.2,22.2,0,0,1,5.1.6,17.4,17.4,0,0,1,4,1.6Z" transform="translate(0 -4.8)"/><path class="cls-1" d="M161.1,34.1a10,10,0,0,1-6,9.5c-4.1,2.1-10.2,3.2-18.4,3.3V48a7.4,7.4,0,0,0,2.2,5.6,8.5,8.5,0,0,0,6.1,2.1,20.1,20.1,0,0,0,5.7-1,31.7,31.7,0,0,0,5.6-2.5l-1.4,7a24.7,24.7,0,0,1-11.7,2.9c-4.7,0-8.3-1.3-10.9-3.9s-4-6.3-4-11a25.3,25.3,0,0,1,2.7-11.5,20.8,20.8,0,0,1,7.5-8.3,18.2,18.2,0,0,1,10.4-3.1q5.7,0,9,2.7A8.6,8.6,0,0,1,161.1,34.1Zm-8.2.2a3.6,3.6,0,0,0-1.3-2.8,5.4,5.4,0,0,0-3.5-1.1,9.6,9.6,0,0,0-6.8,3.1,15.6,15.6,0,0,0-4,7.5C147.7,41,152.9,38.8,152.9,34.3Z" transform="translate(0 -4.8)"/><path class="cls-1" d="M173.1,61.8c-2.6,0-4.6-.6-6-1.9a7.4,7.4,0,0,1-2-5.5,56.7,56.7,0,0,1,1.3-8.5c.9-4.1,3.6-16.8,8.1-38h8.6l-8.5,40a30.4,30.4,0,0,0-.8,4.5c0,1.8,1,2.7,3.1,2.7a8.3,8.3,0,0,0,3.2-.6L178.8,61A21.8,21.8,0,0,1,173.1,61.8Z" transform="translate(0 -4.8)"/><path class="cls-1" d="M193.8,61.8c-2.6,0-4.6-.6-5.9-1.9a7,7,0,0,1-2-5.5,45.8,45.8,0,0,1,1.3-8.5c.9-4.1,3.6-16.8,8.1-38h8.5l-8.5,40a25.8,25.8,0,0,0-.7,4.5q0,2.7,3,2.7a7.9,7.9,0,0,0,3.2-.6L199.5,61A21.2,21.2,0,0,1,193.8,61.8Z" transform="translate(0 -4.8)"/><path class="cls-1" d="M238.8,34.1a10,10,0,0,1-6,9.5c-4,2.1-10.2,3.2-18.4,3.3V48a7.3,7.3,0,0,0,2.1,5.6,8.5,8.5,0,0,0,6.1,2.1,20.1,20.1,0,0,0,5.7-1,28.7,28.7,0,0,0,5.6-2.5l-1.4,7a24.2,24.2,0,0,1-11.7,2.9c-4.7,0-8.3-1.3-10.9-3.9s-3.9-6.3-3.9-11a26.5,26.5,0,0,1,2.6-11.5,20.8,20.8,0,0,1,7.5-8.3,18.7,18.7,0,0,1,10.5-3.1c3.7,0,6.7.9,8.9,2.7A8.6,8.6,0,0,1,238.8,34.1Zm-8.2.2a3.3,3.3,0,0,0-1.3-2.8,5.2,5.2,0,0,0-3.5-1.1,9.7,9.7,0,0,0-6.8,3.1,14.7,14.7,0,0,0-3.9,7.5C225.4,41,230.6,38.8,230.6,34.3Z" transform="translate(0 -4.8)"/><path class="cls-1" d="M382.1,64h-8.7a28.6,28.6,0,0,1,.3-3.2,22.7,22.7,0,0,1,.4-3.6h-.2a26.2,26.2,0,0,1-3.8,4.7,12.4,12.4,0,0,1-3.4,2.2,11.8,11.8,0,0,1-4.3.8,9.3,9.3,0,0,1-7.9-3.7c-1.9-2.4-2.9-5.7-2.9-10a25.9,25.9,0,0,1,3.1-12.4,20.1,20.1,0,0,1,8.2-8.8,24.2,24.2,0,0,1,12-2.9,67,67,0,0,1,13.5,1.7l-5,23.5c-.3,1.6-.6,3.7-.9,6.1A46.6,46.6,0,0,0,382.1,64Zm-3.3-30a17.7,17.7,0,0,0-4.8-.5,12.4,12.4,0,0,0-7.1,2.1,15.2,15.2,0,0,0-4.9,6.3,22.5,22.5,0,0,0-1.8,8.9,9.2,9.2,0,0,0,1.3,5.4,4.5,4.5,0,0,0,4,1.9c2.5,0,4.8-1.3,6.8-3.9a26.6,26.6,0,0,0,4.4-10.5Z" transform="translate(0 -4.8)"/><path class="cls-1" d="M401.1,64.6a8.1,8.1,0,0,1-5.9-2,7,7,0,0,1-2-5.5,13.7,13.7,0,0,1,.4-3.6L398.8,28h8.5l-4.7,22.7a30.4,30.4,0,0,0-.8,4.5c0,1.8,1,2.7,3.1,2.7a8.3,8.3,0,0,0,3.2-.6l-1.4,6.5A23.6,23.6,0,0,1,401.1,64.6Zm9.5-48.8a4.5,4.5,0,0,1-1.5,3.5,5.3,5.3,0,0,1-3.7,1.4,4.8,4.8,0,0,1-3.5-1.3,4,4,0,0,1-1.5-3.3,4.2,4.2,0,0,1,1.6-3.5,5.2,5.2,0,0,1,3.7-1.3,5.5,5.5,0,0,1,3.5,1.2A4.5,4.5,0,0,1,410.6,15.8Z" transform="translate(0 -4.8)"/><path class="cls-1" d="M421.8,64.6a8.1,8.1,0,0,1-5.9-2,6.9,6.9,0,0,1-2.1-5.4,48.8,48.8,0,0,1,1.4-8.5c.9-4.1,3.6-16.8,8.1-38h8.5l-8.5,40a25.8,25.8,0,0,0-.7,4.5q0,2.7,3,2.7a7.9,7.9,0,0,0,3.2-.6l-1.3,6.5A21.2,21.2,0,0,1,421.8,64.6Z" transform="translate(0 -4.8)"/><path class="cls-1" d="M349.9,4.9l2.6,3.2c-.1.4-.1.7-.2,1.1s-.1.4-.2.6L340.4,63.9H327l10.4-44L308.6,49.6l-4.2-.6L289.2,21.7c-3.6,14-7.1,28-10.7,42.1l-11.6.2,14-54.8c.3-1.5.7-2.9,1.5-3.4h10.2c-.3-.8-.2-.6-.1-.4s1.3,2.5,1.9,3.8l.4.6c4.5,8.9,9.1,17.7,13.7,26.5L334.2,9.8l.6-.6L339,4.9h10.9Z" transform="translate(0 -4.8)"/><path class="cls-1" d="M352.5,8.3a2.9,2.9,0,0,0-.2.9H280.9l.4-1.8a3.5,3.5,0,0,1,3.3-2.6h65.1A2.9,2.9,0,0,1,352.5,8.3Z" transform="translate(0 -4.8)"/><line class="cls-2" x1="245.8" y1="12.2" x2="271.4" y2="12.2"/><line class="cls-2" x1="256" y1="26.2" x2="267.8" y2="26.2"/><line class="cls-2" x1="261.3" y1="40.2" x2="264.4" y2="40.2"/><rect class="cls-3" y="14.5" width="42.5" height="41.87"/><rect class="cls-3" x="431.8" y="5.3" width="42.5" height="41.87"/></g></g></svg>