<svg xmlns="http://www.w3.org/2000/svg" viewBox="0 0 88.3 88.3"><defs><style>.cls-1{fill:#333;stroke:#333;stroke-miterlimit:10;stroke-width:2px;}</style></defs><g id="Layer_2" data-name="Layer 2"><g id="Layer_1-2" data-name="Layer 1"><path id="Layer_1-3" data-name="Layer 1" class="cls-1" d="M44.2,1A43.1,43.1,0,0,0,15.4,76.3h0l.6.6.4.3a58.9,58.9,0,0,0,5.7,4.1l.5.2,3,1.7h.1a53,53,0,0,0,7,2.6h.1l3.6.8h.3l3.5.5h8l3.5-.5H52l3.5-.8h.1a54.4,54.4,0,0,0,7.1-2.6h0a30.7,30.7,0,0,0,3.1-1.7l.5-.2,2.6-1.8.7-.5L72,77.2l.3-.3.7-.6h0A43.2,43.2,0,0,0,44.2,1Zm0,43.2A14.4,14.4,0,1,1,58.6,29.8,14.4,14.4,0,0,1,44.2,44.2Zm5.4,3.6A19.8,19.8,0,0,1,69.4,67.6v7.1l-.3.2-2.2,1.6-.4.4L64,78.4l-.5.3a41.1,41.1,0,0,1-12.3,4.4h-.3l-3.1.4H40.6l-3.4-.5a39.3,39.3,0,0,1-9.4-2.9h-.3a30.7,30.7,0,0,1-3.1-1.7l-2.5-1.5-.5-.4-2.2-1.6c-.1-.1-.1-.2-.2-.2V67.6A19.8,19.8,0,0,1,38.8,47.8ZM73,71.3V67.6A23.4,23.4,0,0,0,54.3,44.7a18.3,18.3,0,0,0,7.9-14.9A18,18,0,1,0,34.1,44.7,23.3,23.3,0,0,0,15.4,67.6v3.7a39.5,39.5,0,1,1,57.6,0Z"/></g></g></svg>