<svg xmlns="http://www.w3.org/2000/svg" viewBox="0 0 108.3 94.5"><defs><style>.cls-1{opacity:0.66;}.cls-2,.cls-3{fill:#333;stroke:#333;}.cls-2{stroke-linecap:round;stroke-linejoin:round;}.cls-3{stroke-miterlimit:10;}</style></defs><g id="Layer_2" data-name="Layer 2"><g id="Layer_1-2" data-name="Layer 1"><g class="cls-1"><path class="cls-2" d="M107.7,75.8c-.6-4.1-3.5-10.9-6.7-15.5A47.4,47.4,0,0,0,80.8,43.4l-1.9-.9,1.2-1.2a25.8,25.8,0,0,0,7.1-12.4,23,23,0,0,0,.2-10.1A26.3,26.3,0,0,0,72.7.6V6.9a17.4,17.4,0,0,1,7.1,7.6,20.2,20.2,0,0,1,1.3,14.9,18.3,18.3,0,0,1-8.4,10.7v6.7l2.3.7a39.9,39.9,0,0,1,25.3,24.1c1.8,4.8,2,7.1.9,9.5a10.5,10.5,0,0,1-4,4.1v6.1a7.4,7.4,0,0,0,2.6-1,12.6,12.6,0,0,0,3.9-2.8A14,14,0,0,0,107.7,75.8Z"/></g><path class="cls-3" d="M43.2.6A26.6,26.6,0,0,0,21.5,18.5a24.2,24.2,0,0,0,3.2,21.1A35.6,35.6,0,0,0,27.6,43a10.2,10.2,0,0,1,1.6,2c-.6,0-6.3,2.9-8.5,4.3A51.7,51.7,0,0,0,9.5,59.5,49.8,49.8,0,0,0,1,75.8a16.7,16.7,0,0,0-.1,7.7A14.4,14.4,0,0,0,11.2,93.7c1.3.3,3.1.3,34.8.3,37.3,0,34.3.1,37.5-1.4a14,14,0,0,0,7.8-14.5c-.6-4.1-3.5-10.9-6.6-15.5A47.4,47.4,0,0,0,64.5,45.7l-2-.9,1.3-1.2a25.8,25.8,0,0,0,7.1-12.4,26.5,26.5,0,0,0,.2-10.1A26.7,26.7,0,0,0,50.6.9,30.8,30.8,0,0,0,43.2.6Zm8.5,6.6a18,18,0,0,1,11.7,9.6,19.7,19.7,0,0,1,1.3,14.9A18.2,18.2,0,0,1,54.6,43.3a21.1,21.1,0,0,1-19.1-.9,23.1,23.1,0,0,1-5.6-5.2,20.2,20.2,0,0,1-2.3-18.6A18.5,18.5,0,0,1,39.2,7.5c2.3-.9,3.8-1,7.3-1A15.7,15.7,0,0,1,51.7,7.2ZM37.2,49.4a2.8,2.8,0,0,1,1.2.8c0,.4-5.4,23.5-5.5,23.7s10.9,8,12.5,9,13-8.6,12.9-8.9-1.2-5.4-2.7-11.8S53,50.5,53,50.4s.7-.6,1.5-.9l1.6-.6,2.6.9A40.2,40.2,0,0,1,84,73.8c1.8,4.8,2,7.2.8,9.6a10.1,10.1,0,0,1-4.4,4.3l-1.3.5H46.9c-22,.1-32.7,0-33.7-.1a14.7,14.7,0,0,1-2.5-.8,11.1,11.1,0,0,1-3.7-4,5,5,0,0,1-.5-3.2,10.9,10.9,0,0,1,.9-4.6A39.7,39.7,0,0,1,33.1,49.8l2.7-.9ZM49.2,61l2.4,10.3c.1.2-.9,1-2.8,2.4l-3.2,2-3.1-2c-2-1.4-2.9-2.1-2.8-2.4s1.1-4.8,2.4-10.3l2.3-10h2.5Z"/></g></g></svg>