<svg xmlns="http://www.w3.org/2000/svg" viewBox="0 0 106.1 91.8"><defs><style>.cls-1,.cls-2,.cls-3{fill:none;stroke-linecap:round;stroke-linejoin:round;stroke-width:7px;}.cls-1{stroke:#f2f2f2;}.cls-2{stroke:#ff0;}.cls-3{stroke:aqua;}</style></defs><g id="Layer_2" data-name="Layer 2"><g id="Layer_1-2" data-name="Layer 1"><path class="cls-1" d="M100.7,3.9C67.9,18.1,37.4,29.5,4.6,43.6a2,2,0,0,0,0,3.6L30.2,58.3a1.1,1.1,0,0,1,.6.7c2.7,9.3,5.5,18.5,8.2,27.8a1.8,1.8,0,0,0,3.6.1C45,80.2,47.5,73.4,50,66.7l.2-.4L100.7,3.9a1.1,1.1,0,0,1,1.9.9C99,30.3,95.5,55.7,91.9,81.2A2.2,2.2,0,0,1,89,83.1L51.8,67.4"/><path class="cls-2" d="M40.1,51.1l2-1.6"/><line class="cls-3" x1="52.4" y1="41.7" x2="65.5" y2="31.4"/></g></g></svg>