<svg xmlns="http://www.w3.org/2000/svg" viewBox="0 0 104.5 104.5"><defs><style>.cls-1{fill:none;stroke:#333;stroke-linecap:round;stroke-linejoin:round;stroke-width:7px;}.cls-2{fill:#333;}</style></defs><g id="Layer_2" data-name="Layer 2"><g id="Layer_1-2" data-name="Layer 1"><circle class="cls-1" cx="52.3" cy="52.3" r="48.8"/><path class="cls-2" d="M48.6,82.6V74.9c-5.1-.2-10.1-1.6-13-3.6l2.2-7.5a24.6,24.6,0,0,0,12.5,3.5c5,0,8.4-2.4,8.4-6.3s-2.8-5.9-8.7-8.1c-8.4-3-13.8-6.8-13.8-14.3S41,26.5,49.1,25V17.2h6.5v7.4a26,26,0,0,1,11.1,2.7l-2.2,7.3a23.4,23.4,0,0,0-10.9-2.7c-5.6,0-7.6,2.9-7.6,5.6s2.9,5.1,9.7,7.8c9,3.4,13,7.7,13,14.8S63.9,72.9,55.1,74.4v8.2Z"/></g></g></svg>