<svg xmlns="http://www.w3.org/2000/svg" viewBox="0 0 118.9 118.9"><defs><style>.cls-1{fill:#333;}.cls-1,.cls-2,.cls-3{stroke:#333;stroke-miterlimit:10;}.cls-2,.cls-3{fill:none;}.cls-3{stroke-width:7px;}</style></defs><g id="Layer_2" data-name="Layer 2"><g id="Layer_1-2" data-name="Layer 1"><path class="cls-1" d="M78.5,66.1l-2.1-1,1.3-1.3a27.9,27.9,0,0,0,7.7-13.4,26.7,26.7,0,0,0,.2-10.9A28.6,28.6,0,0,0,63.5,17.7a31,31,0,0,0-8-.3A28.8,28.8,0,0,0,32,36.7a26,26,0,0,0,3.5,22.8,40.5,40.5,0,0,0,3.1,3.7c1.1,1.2,1.9,2.1,1.7,2.1s-6.8,3.2-9.1,4.7l-1.8,1.2a1.8,1.8,0,0,0,1,3.2h5.1l.9-.2a43.6,43.6,0,0,1,8.2-3.7l2.4-.7h1.1l.9.3c.8.4,1.3.7,1.3.9s-.3,1.4-.8,3.4c-1.3,5.9-4,17.6-4.9,21.2a1.9,1.9,0,0,0,.7,1.8c2.7,2.1,11.1,8,12.6,8.9s14-9.3,13.9-9.6-1.3-5.9-2.9-12.8c-.9-3.7-1.6-7.1-2.2-9.5s-.7-3.2-.7-3.3l1.7-.9,1.2-.4H70l2.2.7a44.5,44.5,0,0,1,8.3,3.7l.9.2h5.1a1.8,1.8,0,0,0,1-3.2A56.5,56.5,0,0,0,78.5,66.1ZM62,82.7c1.4,5.9,2.5,10.9,2.6,11.1s-1,1.1-3.1,2.5l-3.4,2.3-3.3-2.2-2.3-1.7a1.7,1.7,0,0,1-.6-1.8c.4-1.7,1.3-5.7,2.4-10.2l1.9-8.3.2-1.2a1.7,1.7,0,0,1,1.7-1.3h0a1.7,1.7,0,0,1,1.7,1.3l.3,1.2Zm5.8-19.2a23,23,0,0,1-20.6-.9,23.8,23.8,0,0,1-6.1-5.7,21.8,21.8,0,0,1-2.5-20.1,20.1,20.1,0,0,1,12.5-12c2.6-.9,4.1-1.1,7.9-1s4,.1,5.7.7A20,20,0,0,1,77.4,34.8a21.4,21.4,0,0,1,1.3,16.1A19.8,19.8,0,0,1,67.8,63.5Z"/><line class="cls-2" x1="56.2" y1="74.4" x2="49.5" y2="74.4"/><line class="cls-2" x1="66.7" y1="74.4" x2="60.1" y2="74.4"/><circle class="cls-3" cx="59.5" cy="59.5" r="56"/></g></g></svg>