<svg xmlns="http://www.w3.org/2000/svg" viewBox="0 0 85.4 84.4"><defs><style>.cls-1{fill:none;stroke:#333;stroke-linecap:round;stroke-linejoin:round;stroke-width:7px;}.cls-2{fill:#333;}</style></defs><g id="Layer_2" data-name="Layer 2"><g id="Layer_1-2" data-name="Layer 1"><path class="cls-1" d="M51,80.9H11.7a8.2,8.2,0,0,1-8.2-8.2v-61a8.2,8.2,0,0,1,8.2-8.2h61a8.2,8.2,0,0,1,8.2,8.2V52.3"/><line class="cls-1" x1="45.2" y1="48.8" x2="71.5" y2="69.1"/><polygon class="cls-2" points="40.6 60.7 31.3 38.1 55.5 41.4 40.6 60.7"/><polygon class="cls-2" points="61.2 76.6 85.4 79.9 76.1 57.3 61.2 76.6"/><polygon class="cls-1" points="67.5 30.4 57.6 35.3 48.4 29.2 49.1 18.2 59.1 13.3 68.2 19.4 67.5 30.4"/><circle class="cls-1" cx="25.3" cy="22.2" r="5.1"/></g></g></svg>