<svg xmlns="http://www.w3.org/2000/svg" viewBox="0 0 67.8 81"><defs><style>.cls-1{fill:#333;stroke:#333;stroke-miterlimit:10;stroke-width:3px;}</style></defs><g id="Layer_2" data-name="Layer 2"><g id="Layer_1-2" data-name="Layer 1"><path class="cls-1" d="M38.6,6.3l-4.2,4.3L32.7,8.8C30.5,6.7,29.6,6.2,28,6.2a3,3,0,0,0-1.6.3c-.2.1-4,3.8-8.3,8.1-8.5,8.5-9.4,9.6-11,12.7A22.3,22.3,0,0,0,4.4,38.2a19.3,19.3,0,0,0,1.1,7.3,26.8,26.8,0,0,0,5.3,9.2l.7.7-1.3,1.2a8.1,8.1,0,0,0-2.7,5.8c0,2.2.9,4.2,3,6.5S13,72.3,13,73.7a3.2,3.2,0,0,1-1.3,2.7c-1.7,1.5-4.2,1.1-6.8-1.1l-1.1-.9-.8.9-.8.8.7.7c2.6,2.3,6.1,3.3,8.8,2.4A5.5,5.5,0,0,0,13.6,78a5.4,5.4,0,0,0,1.6-4.3c0-2.5-.7-4-3.1-6.7a9.3,9.3,0,0,1-1.7-2.2,3.8,3.8,0,0,1-.5-2.2,3.9,3.9,0,0,1,.5-2.3,10.2,10.2,0,0,1,2.7-3l1.4.9A26,26,0,0,0,25,63.1a33.9,33.9,0,0,0,9,0,25.7,25.7,0,0,0,10.1-4.6c1.6-1.2,16.4-15.9,17-16.9a2.7,2.7,0,0,0,.4-1.9c0-1.6-.4-2.4-2.6-4.6l-1.7-1.7,4.2-4.3,4.2-4.2-3-3-3-3.1L55.4,23c-2.3,2.3-4.2,4.1-4.3,4.1S40.6,16.9,40.6,16.6l4.2-4.3,4.1-4.1-3-3-3-3.1ZM41.7,12l-3.8,3.8-1.3-1.3-1.3-1.3,3.8-3.9,3.8-3.8,1.3,1.4,1.3,1.3ZM28.9,8.8c.8.4,29.8,29.4,30.1,30.1s.6,1-7.7,9.3c-4.4,4.4-8.2,8-8.9,8.5a21.2,21.2,0,0,1-14.7,4.5c-5.5-.6-10-2.9-14.4-7.4S6.6,44,6.6,38.3a20.9,20.9,0,0,1,4.5-13c1-1.3,16-16.4,16.5-16.7S28.3,8.5,28.9,8.8Zm32,14.8,1.3,1.3-3.8,3.8-3.8,3.8-1.3-1.3L52,29.9l3.7-3.8,3.9-3.8Z"/><path class="cls-1" d="M28.5,18.2l-.4.4L38.2,28.7,48.3,38.8l.4-.4a.7.7,0,0,0,.3-.5c0-.1-19.9-20.1-20-20.1Z"/><path class="cls-1" d="M24.2,22.6l-.4.4L33.9,33l10,10.1.5-.4.4-.4-10-10.1-10.2-10A1.2,1.2,0,0,0,24.2,22.6Z"/></g></g></svg>