<svg xmlns="http://www.w3.org/2000/svg" viewBox="0 0 92 94.2"><defs><style>.cls-1{fill:none;stroke:#f2f2f2;stroke-linecap:round;stroke-linejoin:round;stroke-width:7px;}.cls-2{fill:#f2f2f2;}.cls-3{stroke:aqua;stroke-miterlimit:10;stroke-width:4px;}</style></defs><g id="Layer_2" data-name="Layer 2"><g id="Layer_1-2" data-name="Layer 1"><path class="cls-1" d="M14.8,77.5A43.5,43.5,0,0,0,88.5,56.8"/><polygon class="cls-2" points="4.1 89.6 3.5 56.8 32.2 72.6 4.1 89.6"/><path class="cls-1" d="M3.5,37.4A43.6,43.6,0,0,1,46,3.5,43,43,0,0,1,77.2,16.7"/><polygon class="cls-2" points="59.8 21.6 88.5 37.4 87.9 4.6 59.8 21.6"/><path class="cls-3" d="M64,43.3H60.9a3.3,3.3,0,0,1-1.6-.7,2.6,2.6,0,0,1-.7-1.7,2.1,2.1,0,0,1,.7-1.5h0l.4-.4c0-.1,0-.1.1-.1h0l1.6-1.7c.5-.4.4-1.2-.2-1.8L57.8,32c-.6-.6-1.4-.7-1.8-.2l-1.7,1.6h0c-.1.1-.2.2-.2.3l-.3.2h0a2.8,2.8,0,0,1-1.6.6,2.3,2.3,0,0,1-2.3-2.3h0v-.7h0V29.3c0-.6-.6-1.1-1.5-1.1H43.6a1.3,1.3,0,0,0-1.4,1.1v2.3h-.1a.4.4,0,0,0,.1.3v.4h0a2.9,2.9,0,0,1-.7,1.6,2.6,2.6,0,0,1-3.3.1h0l-.4-.3v-.2h-.1l-1.6-1.7-.4-.3h-.4a2.1,2.1,0,0,0-1.1.5l-3.4,3.4c-.6.6-.7,1.4-.2,1.8l1.7,1.7h0c0,.1.1.1.2.2l.3.3h0a2,2,0,0,1,.6,1.5,2.4,2.4,0,0,1-2.3,2.4h-3c-.7,0-1.1.6-1.1,1.4v4.8c0,.8.4,1.4,1.1,1.4h3a2.9,2.9,0,0,1,1.6.7,2.3,2.3,0,0,1,.1,3.2h0l-.4.4h-.1L30.6,57l-.3.3v.4a2.1,2.1,0,0,0,.5,1.1l3.4,3.4a2.1,2.1,0,0,0,1.2.5,1.1,1.1,0,0,0,.7-.3l1.6-1.6h.1l.2-.3.2-.2h0a2.8,2.8,0,0,1,1.6-.6,2.4,2.4,0,0,1,2.4,2.3h-.1v.7h0v2.3c0,.6.7,1.1,1.5,1.1h4.8c.9,0,1.5-.5,1.5-1.1V62.6h0v-.7h0a2,2,0,0,1,.7-1.6,2.4,2.4,0,0,1,3.2-.1h0l.4.4c0,.1.1.1.1.2h0L56,62.4a.9.9,0,0,0,.7.3,2.1,2.1,0,0,0,1.1-.5l3.4-3.4a2.1,2.1,0,0,0,.5-1.1v-.5l-1.9-1.9h0c-.1-.1-.2-.1-.2-.2l-.3-.3h0a2,2,0,0,1-.6-1.5,2.3,2.3,0,0,1,2.2-2.4H64a1.3,1.3,0,0,0,1.1-1.4V44.7A1.3,1.3,0,0,0,64,43.3Zm-.6,6H61a4.1,4.1,0,0,0-2.2,7.5h0l1.1,1.1-3.1,3-1-1h-.1l-.5-.6a4.1,4.1,0,0,0-7,3.7h0v1.5H43.8V62.9h.1V62a4.1,4.1,0,0,0-7.5-2.3h-.1l-1,1-3.1-3,1-1.1h.1l.6-.5a4.1,4.1,0,0,0,0-5.8,4,4,0,0,0-3.7-1.1H28.6V44.9H31a4.1,4.1,0,0,0,4.1-4.1,4.3,4.3,0,0,0-1.8-3.4h-.1l-1-1.1,3.1-3,1,1h0l.6.6a3.8,3.8,0,0,0,2.9,1.2,4.1,4.1,0,0,0,4-4.9h0V29.9h4.4v1.4h0a1.9,1.9,0,0,0-.1.8,4.1,4.1,0,0,0,4.1,4.1,4.4,4.4,0,0,0,3.5-1.8h0l1.1-1,3.1,3.1-1,.9h-.1l-.7.5a4.1,4.1,0,0,0,0,5.8A4,4,0,0,0,61,45h2.4Z"/></g></g></svg>