<svg xmlns="http://www.w3.org/2000/svg" viewBox="0 0 108.7 117.5"><defs><style>.cls-1{fill:#333;stroke:#333;stroke-miterlimit:10;stroke-width:3px;}</style></defs><g id="Layer_2" data-name="Layer 2"><g id="Layer_1-2" data-name="Layer 1"><path class="cls-1" d="M63,42.3a17.4,17.4,0,1,1-24.2,7.5,17.2,17.2,0,0,1,13.5-9.6,2.2,2.2,0,0,1,.5,4.3,13.3,13.3,0,0,0-10.1,7.2,13,13,0,1,0,17.4-5.9,2.2,2.2,0,0,1-1.2-2.5,2,2,0,0,1-.3-1.1V5.9H50.1V20.8l-1.8.3A36.1,36.1,0,0,0,25.3,35l-1.2,1.5L10.6,28.7,6.3,36l13.9,8-.5,1.7a35.5,35.5,0,0,0-1.8,11.2A37.3,37.3,0,0,0,20.7,71l.8,1.8L6.3,81.5l4.3,7.4,15.5-9,1.2,1.4a36.8,36.8,0,0,0,21,11.5l1.8.3v18.5h8.5V93.1l1.8-.3A37.1,37.1,0,0,0,81.5,81.3l1.2-1.4,15.5,9,4.2-7.4L87.2,72.8,88,71a37.3,37.3,0,0,0,2.8-14.1A35.5,35.5,0,0,0,89,45.7L88.5,44l13.9-8-4.2-7.3L84.6,36.5,83.4,35A36,36,0,0,0,69.7,23.9a2.2,2.2,0,0,1,1.8-4A42.2,42.2,0,0,1,85.7,30.8l11.2-6.5a3.3,3.3,0,0,1,4.5,1.2l5.4,9.2a3.4,3.4,0,0,1-1.2,4.6L93.8,46.1a43.2,43.2,0,0,1,1.4,10.8,40.8,40.8,0,0,1-2.4,14l12.8,7.4a3.3,3.3,0,0,1,1.2,4.5L101.4,92a3.3,3.3,0,0,1-4.5,1.2L83.5,85.5A40.9,40.9,0,0,1,63,96.8v15.9a3.3,3.3,0,0,1-3.3,3.3H49a3.3,3.3,0,0,1-3.3-3.3V96.8A40.9,40.9,0,0,1,25.2,85.5L11.8,93.2A3.3,3.3,0,0,1,7.3,92L1.9,82.8a3.3,3.3,0,0,1,1.3-4.5L16,70.9a38.6,38.6,0,0,1-2.5-14A39.1,39.1,0,0,1,15,46.1L3.2,39.3a3.4,3.4,0,0,1-1.3-4.6l5.4-9.2a3.3,3.3,0,0,1,4.5-1.2L23,30.8A40.9,40.9,0,0,1,45.7,17.1V4.8A3.3,3.3,0,0,1,49,1.5H59.7A3.3,3.3,0,0,1,63,4.8V42.2Z"/></g></g></svg>