<svg xmlns="http://www.w3.org/2000/svg" viewBox="0 0 92.2 91.4"><defs><style>.cls-1{fill:#fff;stroke:#fff;stroke-width:3px;}.cls-1,.cls-2{stroke-miterlimit:10;}.cls-2{fill:none;stroke:lime;stroke-width:7px;}</style></defs><g id="Layer_2" data-name="Layer 2"><g id="Layer_1-2" data-name="Layer 1"><path class="cls-1" d="M88,36.7H80.9a5.7,5.7,0,0,1-3.7-1.6,5.9,5.9,0,0,1-1.6-3.9A5.5,5.5,0,0,1,77,27.6h.1l.9-.9.3-.2h-.1l3.9-3.9c1.1-1,.9-2.8-.5-4.2l-8-7.9c-1.4-1.4-3.2-1.6-4.3-.6l-3.9,3.9h0l-.5.5-.6.7h0a5.5,5.5,0,0,1-3.7,1.4,5.4,5.4,0,0,1-5.5-5.2h0V9.6h0V4.1c0-1.5-1.4-2.6-3.4-2.6H40.4C38.5,1.5,37,2.6,37,4.1V9.6h0v1.6h.1a5.7,5.7,0,0,1-1.6,3.6,5.8,5.8,0,0,1-7.7.2h.1l-1-.9-.2-.3h0L22.8,10,22,9.3h-.9a3.5,3.5,0,0,0-2.5,1.2l-8,7.9C9.2,19.8,9,21.6,10,22.6l3.9,3.9h0l.6.4.6.7h0a5.6,5.6,0,0,1,1.5,3.7,5.5,5.5,0,0,1-5.3,5.5H4.1c-1.5,0-2.6,1.4-2.6,3.3V51.3c0,2,1.1,3.4,2.6,3.4h7.2a6.2,6.2,0,0,1,3.6,1.6,5.6,5.6,0,0,1,.2,7.6h0l-.9.9-.3.2h0L10,68.8l-.7.8v.9A3.6,3.6,0,0,0,10.6,73l7.9,8a4.4,4.4,0,0,0,2.6,1.2,2.6,2.6,0,0,0,1.7-.7l3.9-3.9h.1c.1-.3.3-.4.4-.6l.7-.6h-.1A5.5,5.5,0,0,1,31.5,75a5.6,5.6,0,0,1,5.6,5.2H37v1.7h0v5.4c0,1.5,1.5,2.6,3.4,2.6H51.7c2,0,3.4-1.1,3.4-2.6V81.9h.1a1.5,1.5,0,0,1-.1-.7v-.9h0a5.2,5.2,0,0,1,1.6-3.6,5.8,5.8,0,0,1,7.6-.2h0l.9.8.2.3h.1l3.9,3.9a2.3,2.3,0,0,0,1.6.6,3.7,3.7,0,0,0,2.6-1.2l8-7.9a3.7,3.7,0,0,0,1.2-2.6v-1l-4.5-4.5h.1l-.6-.5-.6-.6H77a5.5,5.5,0,0,1,3.9-9.2H88c1.6,0,2.7-1.4,2.7-3.4V40.1C90.6,38.2,89.5,36.7,88,36.7ZM86.7,50.8H83.1a5.8,5.8,0,0,0-1.9-.2,9.5,9.5,0,0,0-5.3,17.5h0l2.5,2.4-7.2,7.2-2.4-2.3v-.3l-1.2-1.4a9.8,9.8,0,0,0-13.7,0,9.2,9.2,0,0,0-2.6,8.6h0V86H41V82.5a13.7,13.7,0,0,0,.2-1.9,9.7,9.7,0,0,0-17.7-5.3h0L21,77.8l-7.3-7.2,2.4-2.3.2-.2a7.9,7.9,0,0,0,1.5-1.2,9.4,9.4,0,0,0,0-13.5A9.5,9.5,0,0,0,9,50.8H5.4V40.6H9l1.9.2a9.6,9.6,0,0,0,5.4-17.6h-.1l-2.5-2.5L21,13.6,23.3,16l.2.2a7.9,7.9,0,0,0,1.2,1.5,9.7,9.7,0,0,0,13.6,0A9.7,9.7,0,0,0,41,9h0V5.4H51.2V9a5.8,5.8,0,0,0-.2,1.9,9.7,9.7,0,0,0,17.7,5.3h0l2.5-2.5,7.2,7.2-2.3,2.3-.2.2a4.4,4.4,0,0,0-1.5,1.2,9.6,9.6,0,0,0,6.8,16.4l1.9-.2h3.6Z"/><circle class="cls-2" cx="46.1" cy="45.7" r="10.6"/></g></g></svg>