<svg xmlns="http://www.w3.org/2000/svg" viewBox="0 0 92 94.2"><defs><style>.cls-1{fill:none;stroke:#333;stroke-linecap:round;stroke-linejoin:round;stroke-width:7px;}.cls-2{fill:#333;}</style></defs><g id="Layer_2" data-name="Layer 2"><g id="Layer_1-2" data-name="Layer 1"><path class="cls-1" d="M14.8,77.5A43.5,43.5,0,0,0,88.5,56.8"/><polygon class="cls-2" points="4.1 89.6 3.5 56.8 32.2 72.6 4.1 89.6"/><path class="cls-1" d="M3.5,37.4A43.6,43.6,0,0,1,46,3.5,43,43,0,0,1,77.2,16.7"/><polygon class="cls-2" points="59.8 21.6 88.5 37.4 87.9 4.6 59.8 21.6"/><path class="cls-2" d="M43.3,69.9V64a20.7,20.7,0,0,1-9.8-2.6l1.7-5.6a19.6,19.6,0,0,0,9.3,2.6c3.8,0,6.4-1.9,6.4-4.7s-2.1-4.5-6.6-6.1C38,45.3,34,42.4,34,36.9s3.6-9.1,9.6-10.2V20.8h4.9v5.6a18.3,18.3,0,0,1,8.3,2l-1.6,5.5A17.2,17.2,0,0,0,47,31.8c-4.2,0-5.7,2.2-5.7,4.2s2.2,3.9,7.3,5.9c6.7,2.5,9.7,5.8,9.7,11.1s-3.5,9.6-10.1,10.7v6.2Z"/></g></g></svg>