<svg xmlns="http://www.w3.org/2000/svg" viewBox="0 0 91.8 86.2"><defs><style>.cls-1,.cls-2,.cls-3,.cls-4{fill:none;stroke-width:7px;}.cls-1,.cls-3{stroke:#f2f2f2;}.cls-1,.cls-2{stroke-linecap:round;stroke-linejoin:round;}.cls-2{stroke:aqua;}.cls-3,.cls-4{stroke-miterlimit:10;}.cls-4{stroke:#ff0;}</style></defs><g id="Layer_2" data-name="Layer 2"><g id="Layer_1-2" data-name="Layer 1"><path class="cls-1" d="M80.9,35.2V74.5a8.2,8.2,0,0,1-8.2,8.2h-61a8.2,8.2,0,0,1-8.2-8.2v-61a8.2,8.2,0,0,1,8.2-8.2H52.3"/><circle class="cls-1" cx="17.2" cy="18.5" r="1.4"/><circle class="cls-2" cx="32" cy="18.5" r="1.4"/><path class="cls-3" d="M42.5,46.5C39.8,43.7,48.9,29,59.8,18.9S85.4,1.3,87.9,4.1,80.4,20.3,71.7,28.8C61,39.4,45.3,49.4,42.5,46.5Z"/><path class="cls-4" d="M32.7,45c-3.4,1.7-5.2,7.3-5.3,11.1a4.5,4.5,0,0,1-.4,2.6c-1.9,2.7-8,.6-8.3,1.5s5.4,5.4,12.7,5.4c1.6,0,9.3-.1,12.7-5.9.2-.4,3-5.4.4-10.1S36.2,43.2,32.7,45Z"/><path class="cls-3" d="M54.1,29.9,60,35"/></g></g></svg>