<svg xmlns="http://www.w3.org/2000/svg" viewBox="0 0 100.9 112"><defs><style>.cls-1{fill:none;stroke-linecap:round;stroke-linejoin:round;stroke-width:7px;}.cls-1,.cls-2{stroke:#333;}.cls-2{fill:#333;stroke-miterlimit:10;stroke-width:3px;}</style></defs><g id="Layer_2" data-name="Layer 2"><g id="Layer_1-2" data-name="Layer 1"><path class="cls-1" d="M16.8,67.5C3.2,58.8.5,44.2,6.5,36.9s17.3-5.7,18.4-5.6c-.6-1.5-4.1-10.5.7-18.3C31.7,3,47.9.5,57.6,7.4,65.1,12.8,66,22,66.1,23.7c4.5-4.5,11-6.1,16.1-4a12.8,12.8,0,0,1,6.4,5.9"/><path class="cls-2" d="M68.2,58.6a12.2,12.2,0,1,1-17,5.2,12.2,12.2,0,0,1,9.5-6.7,1.6,1.6,0,0,1,1.7,1.3,1.6,1.6,0,0,1-1.3,1.8,8.7,8.7,0,0,0-7.1,5A9.1,9.1,0,1,0,66.2,61a1.5,1.5,0,0,1-.9-1.7,1.9,1.9,0,0,1-.2-.7V33H59.2V43.4l-1.3.3a25.4,25.4,0,0,0-16.2,9.7l-.8,1.1L31.3,49l-3,5.1,9.8,5.7L37.7,61a26.1,26.1,0,0,0-1.2,7.9,25.7,25.7,0,0,0,2,9.9l.5,1.3L28.3,86.2l3,5.2,10.9-6.3.9.9a24.8,24.8,0,0,0,14.8,8.1l1.3.2v13.1h5.9V94.3l1.3-.2A25.1,25.1,0,0,0,81.2,86l.9-.9L93,91.4l3-5.2L85.3,80.1l.5-1.3a25.7,25.7,0,0,0,2-9.9A26.1,26.1,0,0,0,86.6,61l-.4-1.2L96,54.1,93,49l-9.6,5.5-.8-1.1a25.9,25.9,0,0,0-9.7-7.7,1.5,1.5,0,0,1-.7-2.1,1.4,1.4,0,0,1,2-.7,26.7,26.7,0,0,1,10,7.6l7.9-4.6a2.4,2.4,0,0,1,3.2.9L99,53.3a2.2,2.2,0,0,1-.8,3.1l-8.3,4.8a28.6,28.6,0,0,1,1,7.7,29.3,29.3,0,0,1-1.7,9.8l9,5.2a2.3,2.3,0,0,1,.8,3.2l-3.7,6.5a2.3,2.3,0,0,1-3.2.8L82.7,89a29.2,29.2,0,0,1-14.5,7.9v11.3a2.3,2.3,0,0,1-2.3,2.3H58.4a2.3,2.3,0,0,1-2.3-2.3V96.9A29.2,29.2,0,0,1,41.6,89l-9.4,5.4a2.3,2.3,0,0,1-3.2-.8l-3.8-6.5a2.4,2.4,0,0,1,.9-3.2l9-5.2a29.3,29.3,0,0,1-1.7-9.8,28.6,28.6,0,0,1,1-7.7l-8.3-4.8a2.3,2.3,0,0,1-.9-3.1L29,46.8a2.4,2.4,0,0,1,3.2-.9l7.9,4.6a28.3,28.3,0,0,1,16-9.6V32.2a2.3,2.3,0,0,1,2.3-2.3h7.5a2.3,2.3,0,0,1,2.3,2.3V58.6Z"/></g></g></svg>