<svg xmlns="http://www.w3.org/2000/svg" viewBox="0 0 65.6 65.6"><defs><style>.cls-1{fill:#333;stroke:#333;stroke-miterlimit:10;stroke-width:2px;}</style></defs><g id="Layer_2" data-name="Layer 2"><g id="Layer_1-2" data-name="Layer 1"><path class="cls-1" d="M42.7,56.8a2,2,0,0,0-2,2v1.8H5v-10A17.7,17.7,0,0,1,22.4,32.7h.9a17.9,17.9,0,0,1,10.2,3.5,2,2,0,0,0,2.8-.4,2.1,2.1,0,0,0-.5-2.8,20.4,20.4,0,0,0-5.2-2.9,15.7,15.7,0,1,0-15.5,0A21.9,21.9,0,0,0,1,50.6V61.1a3.5,3.5,0,0,0,3.5,3.5H41.2a3.5,3.5,0,0,0,3.5-3.5V58.8A2,2,0,0,0,42.7,56.8ZM11.2,16.6A11.7,11.7,0,0,1,31.1,8.4a11.6,11.6,0,0,1-8.3,19.8A11.6,11.6,0,0,1,11.2,16.6Z"/><path class="cls-1" d="M55.5,40.7,64,32.2a2,2,0,0,0-2.8-2.8l-8.6,8.5-8.5-8.5a2,2,0,0,0-2.8,2.8l8.5,8.5-8.5,8.6a1.9,1.9,0,0,0,0,2.8,1.9,1.9,0,0,0,2.8,0l8.5-8.6,8.6,8.6a1.9,1.9,0,0,0,2.8,0,1.9,1.9,0,0,0,0-2.8Z"/></g></g></svg>