<svg xmlns="http://www.w3.org/2000/svg" viewBox="0 0 85.2 70.8"><defs><style>.cls-1{fill:#333;stroke:#333;stroke-miterlimit:10;stroke-width:2px;fill-rule:evenodd;}</style></defs><g id="Layer_2" data-name="Layer 2"><g id="Layer_1-2" data-name="Layer 1"><path class="cls-1" d="M59.6,40.6A6.4,6.4,0,0,1,65,44.1a6.3,6.3,0,0,1,5.3-3.5c3.7,0,6.7,3.9,6.7,8.6s-3,8.7-6.7,8.7A6.3,6.3,0,0,1,65,54.4a6.4,6.4,0,0,1-5.4,3.5C56,57.9,53,54,53,49.2s3-8.6,6.6-8.6ZM5.6,1h74a4.3,4.3,0,0,1,3.2,1.7,7.3,7.3,0,0,1,1.4,4.2v57a7.3,7.3,0,0,1-1.4,4.2,4.3,4.3,0,0,1-3.2,1.7H5.6a4.5,4.5,0,0,1-3.3-1.7A7.2,7.2,0,0,1,1,63.9V6.9A7.2,7.2,0,0,1,2.3,2.7,4.5,4.5,0,0,1,5.6,1Zm6.7,45.5a1.6,1.6,0,0,1-1.4-1.8A1.6,1.6,0,0,1,12.3,43H34.6c.7,0,1.3.8,1.3,1.7s-.6,1.8-1.3,1.8Zm0,9a1.6,1.6,0,0,1-1.4-1.7A1.6,1.6,0,0,1,12.3,52h15c.8,0,1.3.8,1.3,1.8s-.5,1.7-1.3,1.7ZM3.6,13.8H81.5V6.9a2.5,2.5,0,0,0-.6-1.7,1.6,1.6,0,0,0-1.3-.8H5.6a1.7,1.7,0,0,0-1.4.8,3.2,3.2,0,0,0-.6,1.7v6.9ZM81.5,30.9H3.6v33a2.9,2.9,0,0,0,.6,1.7,1.7,1.7,0,0,0,1.4.8h74a1.9,1.9,0,0,0,1.4-.8,2.9,2.9,0,0,0,.5-1.7v-33Z"/></g></g></svg>