<svg xmlns="http://www.w3.org/2000/svg" viewBox="0 0 77.4 77.5"><defs><style>.cls-1,.cls-2{fill:none;stroke:#333;stroke-miterlimit:10;}.cls-1{stroke-width:3px;}.cls-2{stroke-width:7px;}</style></defs><g id="Layer_2" data-name="Layer 2"><g id="Layer_1-2" data-name="Layer 1"><path class="cls-1" d="M64.5,11.9h-.1a37.3,37.3,0,0,0-51.4,0h-.1A37.2,37.2,0,1,0,65.5,13ZM20.1,37.4a47,47,0,0,1,3.6-16.5,38.6,38.6,0,0,0,13.7,3.2V37.4ZM45.2,4.8a33.4,33.4,0,0,1,16.3,8,33.9,33.9,0,0,1-6.6,4.6A41.3,41.3,0,0,0,45.2,4.8Zm7.4,13.7A34.1,34.1,0,0,1,40,21.4V4.2A37.7,37.7,0,0,1,52.6,18.5ZM37.4,4.2V21.4a33.6,33.6,0,0,1-12.5-2.9A38.3,38.3,0,0,1,37.4,4.2ZM22.5,17.4a33.9,33.9,0,0,1-6.6-4.6,33.8,33.8,0,0,1,16.3-8A41.3,41.3,0,0,0,22.5,17.4ZM40,24.1a38.1,38.1,0,0,0,13.7-3.2,47,47,0,0,1,3.6,16.5H40ZM59.9,37.4a46.4,46.4,0,0,0-3.8-17.6,36.7,36.7,0,0,0,7.4-5.2,34.7,34.7,0,0,1,9.7,22.8ZM14,14.6a31.9,31.9,0,0,0,7.4,5.2,46.5,46.5,0,0,0-3.9,17.6H4.2A34.4,34.4,0,0,1,14,14.6ZM38.7,73.3A34.7,34.7,0,0,1,4.2,40h69A34.6,34.6,0,0,1,38.7,73.3Z"/><line class="cls-2" x1="22.5" y1="54.5" x2="28.8" y2="54.5"/><line class="cls-2" x1="34.8" y1="54.5" x2="42" y2="54.5"/><line class="cls-2" x1="47.5" y1="54.5" x2="54.9" y2="54.5"/></g></g></svg>