<svg xmlns="http://www.w3.org/2000/svg" viewBox="0 0 114.7 98.6"><defs><style>.cls-1{fill:none;stroke:#333;stroke-linecap:round;stroke-linejoin:round;stroke-width:7px;}.cls-2{fill:#333;}</style></defs><g id="Layer_2" data-name="Layer 2"><g id="Layer_1-2" data-name="Layer 1"><path class="cls-1" d="M59.9,93H12.3c-4.9,0-8.8-5-8.8-11.2V14.7c0-6.2,3.9-11.2,8.8-11.2H83.5c4.8,0,8.7,5,8.7,11.2V36.9"/><circle class="cls-1" cx="30.8" cy="30.5" r="9.7"/><line class="cls-1" x1="53.7" y1="28.8" x2="74.8" y2="28.8"/><line class="cls-1" x1="53.7" y1="40.1" x2="66.2" y2="40.1"/><circle class="cls-1" cx="86.4" cy="70.3" r="24.8" transform="translate(-24.4 81.7) rotate(-45)"/><path class="cls-1" d="M73.3,66l8.8,10.5L99.5,64"/><path class="cls-1" d="M12,74c0-10,8.5-26,18.9-26S49.8,62.3,49.8,72.3"/><line class="cls-1" x1="30.9" y1="56.6" x2="30.9" y2="74"/><polygon class="cls-2" points="25 58.3 30.9 48 36.9 58.3 25 58.3"/></g></g></svg>