<svg xmlns="http://www.w3.org/2000/svg" viewBox="0 0 88.9 88.9"><defs><style>.cls-1{fill:#333;stroke:#333;stroke-miterlimit:10;stroke-width:2px;}</style></defs><g id="Layer_2" data-name="Layer 2"><g id="Layer_1-2" data-name="Layer 1"><path class="cls-1" d="M62.6,73.4H10.1a9,9,0,0,1-9.1-9V10.1A9.1,9.1,0,0,1,10.1,1H39a1.7,1.7,0,0,1,1.7,1.2L64.3,71a2,2,0,0,1-.2,1.7A1.8,1.8,0,0,1,62.6,73.4ZM10.1,4.6a5.5,5.5,0,0,0-5.5,5.5V64.4a5.5,5.5,0,0,0,5.5,5.4H60L37.7,4.6Z"/><path class="cls-1" d="M78.9,87.9h-29a1.8,1.8,0,0,1-1.7-1.1L42.8,72.3a1.8,1.8,0,0,1,1-2.4A2,2,0,0,1,46.2,71l5,13.3H78.9a5.4,5.4,0,0,0,5.4-5.4V24.5a5.4,5.4,0,0,0-5.4-5.4H44.5a1.8,1.8,0,1,1,0-3.6H78.9a9,9,0,0,1,9,9V78.9A9,9,0,0,1,78.9,87.9Z"/><path class="cls-1" d="M49.9,87.9a1.9,1.9,0,0,1-1.2-.4,2,2,0,0,1-.2-2.6L61.2,70.4a1.9,1.9,0,0,1,2.6-.1,1.8,1.8,0,0,1,.1,2.5L51.3,87.3A2,2,0,0,1,49.9,87.9Z"/><path class="cls-1" d="M35.4,51.7a1.8,1.8,0,0,1-1.7-1.2L26.4,29.9,19,50.5a1.8,1.8,0,0,1-2.3,1.1,1.9,1.9,0,0,1-1.1-2.3l9.1-25.4a1.9,1.9,0,0,1,3.4,0l9,25.4A1.7,1.7,0,0,1,36,51.6Z"/><path class="cls-1" d="M30,40.8H22.7a1.8,1.8,0,0,1,0-3.6H30a1.8,1.8,0,1,1,0,3.6Z"/><path class="cls-1" d="M78.9,40.8H53.5a1.8,1.8,0,0,1,0-3.6H78.9a1.8,1.8,0,0,1,0,3.6Z"/><path class="cls-1" d="M64.4,40.8A1.8,1.8,0,0,1,62.6,39V35.4a1.8,1.8,0,1,1,3.6,0V39A1.8,1.8,0,0,1,64.4,40.8Z"/><path class="cls-1" d="M59,62.6a1.8,1.8,0,0,1-1.1-3.3C65.8,53.7,71.6,42.2,71.6,39a1.8,1.8,0,0,1,1.8-1.8A1.9,1.9,0,0,1,75.3,39c0,4.8-7,17.4-15.3,23.2A1.4,1.4,0,0,1,59,62.6Z"/><path class="cls-1" d="M73.4,66.2a2.1,2.1,0,0,1-1.2-.5c-1.3-1.2-12.9-11.9-14.9-16.9a1.8,1.8,0,0,1,1-2.4,1.7,1.7,0,0,1,2.3,1c1.5,3.7,10.7,12.5,14.1,15.7a1.8,1.8,0,0,1,.1,2.5A2,2,0,0,1,73.4,66.2Z"/></g></g></svg>