<svg xmlns="http://www.w3.org/2000/svg" viewBox="0 0 105 105"><defs><style>.cls-1{fill:#333;stroke:#333;stroke-miterlimit:10;stroke-width:3px;fill-rule:evenodd;}</style></defs><g id="Layer_2" data-name="Layer 2"><g id="Layer_1-2" data-name="Layer 1"><g id="Page-1"><g id="icon-5-mail-envelope-open"><path id="mail-envelope-open" class="cls-1" d="M53.8,73.4h6.6L87.2,51.2V20.8A3.9,3.9,0,0,0,83.1,17H21.9a3.9,3.9,0,0,0-4.1,3.7V51.6L44.6,73.3ZM38.6,13.2,52.5,1.9,66.4,13.2H83.1c4.6,0,8.2,3.4,8.2,7.5V33.4l12.2,9.9V96c0,4.1-3.6,7.5-8.1,7.5H9.7c-4.6,0-8.2-3.4-8.2-7.5V43.3l12.2-9.9V20.7c0-4.1,3.7-7.5,8.2-7.5Zm21.8,0L52.5,6.8l-7.8,6.4ZM91.3,38.3l6.1,5-6.1,5v-10Zm-77.6,10-6.1-5,6.1-5v10ZM40.3,77.2,11.7,99.7H93.3L64.8,77.2ZM98.2,98.7,66.8,73.5,99.5,47.1V96a3.7,3.7,0,0,1-1.3,2.7Zm-91.3,0L38.2,73.5,5.6,47.1V96a3.7,3.7,0,0,0,1.3,2.7Z"/></g></g></g></g></svg>