<svg xmlns="http://www.w3.org/2000/svg" viewBox="0 0 126.3 113.3"><defs><style>.cls-1{fill:none;stroke:#333;stroke-linecap:round;stroke-linejoin:round;stroke-width:7px;}</style></defs><g id="Layer_2" data-name="Layer 2"><g id="Layer_1-2" data-name="Layer 1"><path class="cls-1" d="M99.5,61V86.9a22.9,22.9,0,0,1-23,22.9h-50a22.9,22.9,0,0,1-23-22.9V32a23,23,0,0,1,23-22.9H62.8"/><circle class="cls-1" cx="51.5" cy="44.1" r="13.3"/><line class="cls-1" x1="25.1" y1="73.8" x2="77.9" y2="73.8"/><line class="cls-1" x1="25.1" y1="88.1" x2="77.9" y2="88.1"/><polygon class="cls-1" points="97.6 3.5 105.4 19.3 122.8 21.8 110.2 34 113.2 51.4 97.6 43.2 82 51.4 85 34 72.4 21.8 89.8 19.3 97.6 3.5"/></g></g></svg>