<svg xmlns="http://www.w3.org/2000/svg" viewBox="0 0 91.6 90.9"><defs><style>.cls-1{fill:none;stroke:#333;stroke-linecap:round;stroke-linejoin:round;stroke-width:7px;}</style></defs><g id="Layer_2" data-name="Layer 2"><g id="Layer_1-2" data-name="Layer 1"><path class="cls-1" d="M88.1,84.1c0,1.8-1.9,3.3-4.2,3.3H7.7c-2.3,0-4.2-1.5-4.2-3.3V6.8C3.5,5,5.4,3.5,7.7,3.5H83.9c2.3,0,4.2,1.5,4.2,3.3Z"/><line class="cls-1" x1="3.5" y1="58.1" x2="85.6" y2="58.1"/><line class="cls-1" x1="3.5" y1="30.1" x2="88.1" y2="30.1"/><ellipse class="cls-1" cx="72" cy="15.9" rx="3" ry="2.8"/><ellipse class="cls-1" cx="72" cy="43.6" rx="3" ry="2.8"/><ellipse class="cls-1" cx="72" cy="74.2" rx="3" ry="2.8"/><line class="cls-1" x1="18.9" y1="15.9" x2="57" y2="15.9"/><line class="cls-1" x1="18.9" y1="44.4" x2="57" y2="44.4"/><line class="cls-1" x1="18.9" y1="74.2" x2="57" y2="74.2"/></g></g></svg>