<svg xmlns="http://www.w3.org/2000/svg" viewBox="0 0 106.8 99.7"><defs><style>.cls-1{fill:#333;stroke:#333;stroke-linecap:round;stroke-linejoin:round;}</style></defs><g id="Layer_2" data-name="Layer 2"><g id="Layer_1-2" data-name="Layer 1"><path class="cls-1" d="M11.2.5A10.7,10.7,0,0,0,.5,11.2v57A10.8,10.8,0,0,0,11.2,78.9H57.5V71.8H11.2a3.6,3.6,0,0,1-3.6-3.6V14.4L50.4,44,93.1,14.4V43.2h7.1v-32A10.7,10.7,0,0,0,89.6.5Zm0,7.1H89.6l.6.2L50.4,35.4,10.5,7.8ZM63.6,51.4l-5.1,5.1L77.4,75.3,58.5,94.2l5.1,5L82.4,80.4l18.9,18.8,5-5L87.5,75.3l18.8-18.8-5-5.1L82.4,70.3Z"/></g></g></svg>